<svg width="281" height="178" viewBox="0 0 281 178" fill="none" xmlns="http://www.w3.org/2000/svg">
<g clip-path="url(#clip0_21_62)">
<rect y="0.263123" width="281" height="177.474" fill="#97B1B8" fill-opacity="0.15"/>
<rect x="0.82164" y="146.515" width="280.178" height="31.2222" fill="#BCD0C2"/>
<rect x="26.4663" y="80.7836" width="94.9622" height="96.9532" rx="4.10819" fill="#F7EBD7"/>
<path d="M71.0767 28.538C72.6729 26.9788 75.2218 26.9788 76.818 28.538L127.927 78.4611C130.562 81.0348 128.74 85.5081 125.056 85.5081H22.8384C19.1551 85.5081 17.3329 81.0348 19.9677 78.4611L71.0767 28.538Z" fill="#E6C8BF"/>
<rect x="59.3666" y="130.082" width="29.1616" height="47.655" rx="4.10819" fill="#5E8680"/>
<path d="M65.3484 102.146C65.3484 97.6085 69.027 93.9299 73.5648 93.9299H74.3299C78.8677 93.9299 82.5463 97.6085 82.5463 102.146V122.687H65.3484V102.146Z" fill="#F5F5F5"/>
<rect x="162.858" y="80.7836" width="94.9622" height="96.9532" rx="4.10819" fill="#F7EBD7"/>
<path d="M207.469 28.538C209.065 26.9788 211.614 26.9788 213.21 28.538L264.319 78.4611C266.954 81.0348 265.132 85.5081 261.448 85.5081H159.23C155.547 85.5081 153.725 81.0348 156.36 78.4611L207.469 28.538Z" fill="#E6C8BF"/>
<rect x="195.758" y="130.082" width="29.1616" height="47.655" rx="4.10819" fill="#5E8680"/>
<path d="M201.74 102.146C201.74 97.6085 205.419 93.9299 209.957 93.9299H210.722C215.26 93.9299 218.938 97.6085 218.938 102.146V122.687H201.74V102.146Z" fill="#F5F5F5"/>
<path fill-rule="evenodd" clip-rule="evenodd" d="M137.927 19.6847C137.998 19.1106 138.035 18.5243 138.035 17.9284C138.035 10.8948 132.885 5.19299 126.532 5.19299C120.811 5.19299 116.065 9.81782 115.178 15.8751C115.128 15.8746 115.079 15.8743 115.029 15.8743C107.315 15.8743 101.061 22.4958 101.061 30.6638C101.061 38.8318 107.315 45.4532 115.029 45.4532C121.471 45.4532 126.894 40.8366 128.508 34.5578C130.082 40.7707 137.06 45.4532 145.43 45.4532C154.959 45.4532 162.684 39.3836 162.684 31.8962C162.684 24.4089 154.959 18.3392 145.43 18.3392C142.741 18.3392 140.195 18.8226 137.927 19.6847Z" fill="white"/>
<ellipse cx="255.118" cy="21.6257" rx="17.6652" ry="16.4327" fill="#F9BC75" fill-opacity="0.58"/>
</g>
<defs>
<clipPath id="clip0_21_62">
<rect width="281" height="177.474" fill="white" transform="translate(0 0.263123)"/>
</clipPath>
</defs>
</svg>
